<?xml version="1.0" encoding="UTF-8" standalone="no"?>
<!-- Created with Inkscape (http://www.inkscape.org/) -->

<svg
   xmlns:dc="http://purl.org/dc/elements/1.1/"
   xmlns:cc="http://creativecommons.org/ns#"
   xmlns:rdf="http://www.w3.org/1999/02/22-rdf-syntax-ns#"
   xmlns:svg="http://www.w3.org/2000/svg"
   xmlns="http://www.w3.org/2000/svg"
   xmlns:sodipodi="http://sodipodi.sourceforge.net/DTD/sodipodi-0.dtd"
   xmlns:inkscape="http://www.inkscape.org/namespaces/inkscape"
   width="1000"
   height="1000"
   viewBox="0 0 264.58333 264.58334"
   version="1.1"
   id="svg8"
   inkscape:version="0.92.4 (5da689c313, 2019-01-14)"
   sodipodi:docname="mountain.svg">
  <defs
     id="defs2">
    <filter
       inkscape:collect="always"
       style="color-interpolation-filters:sRGB"
       id="filter4661"
       x="-0.06"
       width="1.12"
       y="-0.06"
       height="1.12">
      <feGaussianBlur
         inkscape:collect="always"
         stdDeviation="0.6614583"
         id="feGaussianBlur4663" />
    </filter>
  </defs>
  <sodipodi:namedview
     id="base"
     pagecolor="#002b36"
     bordercolor="#666666"
     borderopacity="1.0"
     inkscape:pageopacity="0"
     inkscape:pageshadow="2"
     inkscape:zoom="0.7"
     inkscape:cx="309.26482"
     inkscape:cy="209.87646"
     inkscape:document-units="px"
     inkscape:current-layer="layer1"
     showgrid="true"
     units="px"
     width="1920mm"
     inkscape:window-width="1920"
     inkscape:window-height="1017"
     inkscape:window-x="-8"
     inkscape:window-y="-8"
     inkscape:window-maximized="1"
     inkscape:pagecheckerboard="false">
    <inkscape:grid
       type="xygrid"
       id="grid4524"
       spacingx="2.6458333"
       spacingy="2.6458333"
       color="#d73fff"
       opacity="0.39215686"
       empcolor="#003fff"
       empopacity="0.39215686"
       visible="true"
       snapvisiblegridlinesonly="true"
       dotted="false"
       enabled="true"
       empspacing="10" />
  </sodipodi:namedview>
  <metadata
     id="metadata5">
    <rdf:RDF>
      <cc:Work
         rdf:about="">
        <dc:format>image/svg+xml</dc:format>
        <dc:type
           rdf:resource="http://purl.org/dc/dcmitype/StillImage" />
        <dc:title />
      </cc:Work>
    </rdf:RDF>
  </metadata>
  <g
     inkscape:label="Layer 1"
     inkscape:groupmode="layer"
     id="layer1"
     transform="translate(0,-32.416606)">
    <path
       style="fill:#657b83;fill-opacity:1;stroke:#000000;stroke-width:0.5291667;stroke-linecap:butt;stroke-linejoin:miter;stroke-miterlimit:4;stroke-dasharray:none;stroke-opacity:1"
       d="M 52.916664,270.54161 158.75,111.79161 317.5,270.54161 Z"
       id="path4534"
       inkscape:connector-curvature="0"
       sodipodi:nodetypes="cccc" />
    <path
       style="fill:#586e75;fill-opacity:1;stroke:#000000;stroke-width:0.5291667;stroke-linecap:butt;stroke-linejoin:miter;stroke-miterlimit:4;stroke-dasharray:none;stroke-opacity:1"
       d="M 1.0000039e-6,270.54161 185.20833,191.16661 l 79.375,79.375 z"
       id="path4522"
       inkscape:connector-curvature="0"
       sodipodi:nodetypes="cccc" />
    <path
       style="fill:#839496;fill-opacity:1;stroke:#000000;stroke-width:0.5291667;stroke-linecap:butt;stroke-linejoin:miter;stroke-miterlimit:4;stroke-dasharray:none;stroke-opacity:1"
       d="M -26.458333,270.54161 52.916666,164.70828 132.29166,270.54161 Z"
       id="path4528"
       inkscape:connector-curvature="0"
       sodipodi:nodetypes="cccc" />
    <g
       id="g4549">
      <path
         inkscape:connector-curvature="0"
         id="path4536"
         d="m 158.75,111.79161 -21.16667,31.75 5.29167,5.29166 5.29166,-5.29166 5.29167,5.29166 5.29167,-5.29166 5.29166,5.29166 5.29167,-5.29166 5.29167,5.29166 5.29166,-5.29166 5.29167,5.29166 5.29166,-5.29166 z"
         style="fill:#93a1a1;stroke:none;stroke-width:0.52916667;stroke-linecap:butt;stroke-linejoin:miter;stroke-opacity:1;fill-opacity:1;stroke-miterlimit:4;stroke-dasharray:2.11666668, 2.11666667999999980;stroke-dashoffset:0" />
      <path
         inkscape:connector-curvature="0"
         id="path4538"
         d="m 137.58333,143.54161 5.29167,5.29166 5.29166,-5.29166 5.29167,5.29166 5.29167,-5.29166 5.29166,5.29166 5.29167,-5.29166 5.29167,5.29166 5.29166,-5.29166 5.29167,5.29166 5.29166,-5.29166"
         style="fill:none;stroke:#000000;stroke-width:0.396875;stroke-linecap:butt;stroke-linejoin:miter;stroke-opacity:1;stroke-miterlimit:4;stroke-dasharray:1.58750001,1.58750001;stroke-dashoffset:0" />
      <path
         inkscape:connector-curvature="0"
         id="path4544"
         d="m 137.58333,143.54161 21.16667,-31.75 31.74999,31.75"
         style="fill:none;stroke:#000000;stroke-width:0.555625;stroke-linecap:butt;stroke-linejoin:miter;stroke-opacity:1;stroke-miterlimit:4;stroke-dasharray:none" />
    </g>
    <path
       style="fill:#000000;fill-opacity:0.11764706;stroke:none;stroke-width:0.26458332px;stroke-linecap:butt;stroke-linejoin:miter;stroke-opacity:1"
       d="M 52.916666,164.70827 132.29166,270.5416 v 0 l -31.74999,10e-6 C 47.625001,164.70829 52.916666,164.70827 52.916666,164.70827 Z"
       id="path4551"
       inkscape:connector-curvature="0"
       sodipodi:nodetypes="ccccc" />
    <path
       style="fill:#000000;fill-opacity:0.11764706;stroke:none;stroke-width:0.26458332px;stroke-linecap:butt;stroke-linejoin:miter;stroke-opacity:0.11764706"
       d="m 185.20833,191.16661 79.37499,79.37499 -21.16666,10e-6 z"
       id="path4553"
       inkscape:connector-curvature="0"
       sodipodi:nodetypes="cccc" />
    <path
       style="fill:#000000;fill-opacity:0.11764706;stroke:none;stroke-width:0.26458332px;stroke-linecap:butt;stroke-linejoin:miter;stroke-opacity:1"
       d="m 158.75,111.79161 158.75,158.74999 -44.97917,10e-6 z"
       id="path4555"
       inkscape:connector-curvature="0"
       sodipodi:nodetypes="cccc" />
    <circle
       style="fill:#eee8d5;fill-opacity:1;stroke:none;stroke-width:0.55562496;stroke-miterlimit:4;stroke-dasharray:none;stroke-dashoffset:0;stroke-opacity:0.11764706;filter:url(#filter4661);opacity:1"
       id="path4563"
       cx="224.89583"
       cy="98.562439"
       r="13.229166" />
    <path
       style="fill:#eee8d5;stroke:none;stroke-width:0.26458332px;stroke-linecap:butt;stroke-linejoin:miter;stroke-opacity:1;fill-opacity:0.07843138"
       d="m 214.3125,90.624944 -31.75,44.979166 18.52083,18.52083 34.39583,-47.625 z"
       id="path4567"
       inkscape:connector-curvature="0"
       sodipodi:nodetypes="ccccc" />
    <path
       style="fill:#268bd2;fill-opacity:1;stroke:none;stroke-width:0.11688973px;stroke-linecap:butt;stroke-linejoin:miter;stroke-opacity:1"
       d="m -0.105993,313.23243 c 0,0 6.6807289,6.99374 13.361458,0 6.680729,-6.99375 13.361459,0 13.361459,0 v 10.22584 H -0.105993 Z"
       id="path920"
       inkscape:connector-curvature="0" />
    <path
       style="fill:#268bd2;fill-opacity:1;stroke:none;stroke-width:0.11688973px;stroke-linecap:butt;stroke-linejoin:miter;stroke-opacity:1"
       d="m 26.325908,313.23243 c 0,0 6.68073,6.99374 13.361457,0 6.680731,-6.99375 13.36146,0 13.36146,0 v 10.22584 H 26.325908 Z"
       id="path920-3"
       inkscape:connector-curvature="0" />
    <path
       style="fill:#268bd2;fill-opacity:1;stroke:none;stroke-width:0.11688972px;stroke-linecap:butt;stroke-linejoin:miter;stroke-opacity:1"
       d="m 52.75781,313.23243 c 0,0 6.680733,6.99374 13.361455,0 6.680734,-6.99375 13.361462,0 13.361462,0 v 10.22584 H 52.75781 Z"
       id="path920-6"
       inkscape:connector-curvature="0" />
    <path
       style="fill:#268bd2;fill-opacity:1;stroke:none;stroke-width:0.11688974px;stroke-linecap:butt;stroke-linejoin:miter;stroke-opacity:1"
       d="m 79.189713,313.23243 c 0,0 6.680729,6.99374 13.361462,0 6.680723,-6.99375 13.361455,0 13.361455,0 v 10.22584 H 79.189713 Z"
       id="path920-3-2"
       inkscape:connector-curvature="0" />
    <path
       style="fill:#268bd2;fill-opacity:1;stroke:none;stroke-width:0.11688972px;stroke-linecap:butt;stroke-linejoin:miter;stroke-opacity:1"
       d="m 105.6216,313.23243 c 0,0 6.68073,6.99374 13.36146,0 6.68073,-6.99375 13.36146,0 13.36146,0 v 10.22584 H 105.6216 Z"
       id="path920-6-3"
       inkscape:connector-curvature="0" />
    <rect
       style="opacity:1;fill:#268bd2;fill-opacity:1;stroke:none;stroke-width:0.64963102;stroke-miterlimit:4;stroke-dasharray:none;stroke-dashoffset:0;stroke-opacity:1"
       id="rect1024"
       width="264.58334"
       height="21.701199"
       x="-0.185286"
       y="322.92374" />
    <path
       style="fill:#268bd2;fill-opacity:1;stroke:none;stroke-width:0.11688974px;stroke-linecap:butt;stroke-linejoin:miter;stroke-opacity:1"
       d="m 132.07994,313.23243 c 0,0 6.68072,6.99374 13.36146,0 6.68072,-6.99375 13.36146,0 13.36146,0 v 10.22584 h -26.72292 z"
       id="path920-4"
       inkscape:connector-curvature="0" />
    <path
       style="fill:#268bd2;fill-opacity:1;stroke:none;stroke-width:0.11688974px;stroke-linecap:butt;stroke-linejoin:miter;stroke-opacity:1"
       d="m 158.51184,313.23243 c 0,0 6.68072,6.99374 13.36146,0 6.68072,-6.99375 13.36146,0 13.36146,0 v 10.22584 h -26.72292 z"
       id="path920-3-8"
       inkscape:connector-curvature="0" />
    <path
       style="fill:#268bd2;fill-opacity:1;stroke:none;stroke-width:0.11688972px;stroke-linecap:butt;stroke-linejoin:miter;stroke-opacity:1"
       d="m 184.94374,313.23243 c 0,0 6.68072,6.99374 13.36145,0 6.68073,-6.99375 13.36147,0 13.36147,0 v 10.22584 h -26.72292 z"
       id="path920-6-0"
       inkscape:connector-curvature="0" />
    <path
       style="fill:#268bd2;fill-opacity:1;stroke:none;stroke-width:0.11688974px;stroke-linecap:butt;stroke-linejoin:miter;stroke-opacity:1"
       d="m 211.37564,313.23243 c 0,0 6.68072,6.99374 13.36146,0 6.68072,-6.99375 13.36146,0 13.36146,0 v 10.22584 h -26.72292 z"
       id="path920-3-2-6"
       inkscape:connector-curvature="0" />
    <path
       style="fill:#268bd2;fill-opacity:1;stroke:none;stroke-width:0.11654177px;stroke-linecap:butt;stroke-linejoin:miter;stroke-opacity:1"
       d="m 237.80753,313.23243 c 0,0 6.64102,6.99374 13.28203,0 6.64102,-6.99375 13.28203,0 13.28203,0 v 10.22584 h -26.56406 z"
       id="path920-6-3-6"
       inkscape:connector-curvature="0" />
  </g>
</svg>
